<svg width="61" height="50" viewBox="0 0 61 50" fill="none" xmlns="http://www.w3.org/2000/svg">
<g id="Vector">
<path d="M26.2882 29.5968C25.9699 31.7065 25.5945 33.8052 25.162 35.893C24.8449 37.4185 25.0016 38.9953 26.6964 39.4782C26.83 39.5148 26.9126 39.6026 26.9442 39.7416C27.0171 40.0709 27.028 40.4038 26.977 40.7404C26.9576 40.8697 26.8822 40.9343 26.751 40.9343H18.1861C18.0573 40.9343 17.9686 40.8758 17.92 40.7587C17.7123 40.2611 17.7779 39.9063 18.2189 39.5551C19.3682 38.6331 20.136 37.4356 20.5223 35.9625C21.2002 33.3943 21.8429 30.8139 22.4503 28.2212C22.5742 27.692 22.3932 27.3054 21.9073 27.0615L7.5364 19.8837C7.49436 19.8632 7.44816 19.8527 7.40141 19.8531C7.35467 19.8535 7.30865 19.8648 7.26698 19.8861C7.22532 19.9074 7.18912 19.938 7.16125 19.9757C7.13338 20.0134 7.11458 20.057 7.10633 20.1032C5.79426 27.4591 7.30557 33.8333 11.6403 39.2258C15.9446 44.5854 22.0786 47.5231 28.9852 47.7353C29.199 47.7426 29.3047 47.8524 29.3023 48.0646L29.2914 49.7036C29.2914 49.9011 29.1929 49.9999 28.9961 49.9999C19.469 50.0292 10.8057 44.3147 6.76009 35.8088C4.24771 30.5261 3.68643 24.8665 5.07626 18.8301C5.10299 18.713 5.06168 18.6276 4.95234 18.574L0.334562 16.3131C-0.136814 16.0838 -0.110087 15.9679 0.414744 15.9655L5.7979 15.9509C5.94612 15.9509 6.04817 15.8826 6.10405 15.746C9.90543 6.14993 18.7765 0.274493 29.0508 0.000110886C29.083 -0.000868927 29.1151 0.0046529 29.1451 0.0163478C29.1751 0.0280426 29.2025 0.0456726 29.2256 0.0681922C29.2487 0.0907118 29.2671 0.117662 29.2797 0.147444C29.2922 0.177227 29.2987 0.209234 29.2986 0.241568L29.2877 2.06347C29.2877 2.23663 29.2014 2.32931 29.0289 2.34151C27.7788 2.42931 26.3465 2.42199 25.1474 2.67808C17.53 4.29755 12.0145 8.63035 8.60064 15.6765C8.58431 15.7092 8.57666 15.7455 8.57844 15.782C8.58022 15.8185 8.59137 15.854 8.6108 15.8849C8.63023 15.9158 8.65729 15.9411 8.68936 15.9585C8.72142 15.9758 8.7574 15.9845 8.79381 15.9838L15.1938 15.8923C15.3346 15.89 15.4745 15.916 15.6053 15.9688C15.7361 16.0215 15.8552 16.1 15.9556 16.1996L23.2631 23.5604C23.421 23.7189 23.5255 23.6884 23.5765 23.4689L26.8786 9.39862C26.8974 9.32057 26.9417 9.25111 27.0045 9.20136C27.0672 9.15161 27.1448 9.12445 27.2248 9.12424L29.0289 9.11692C29.0969 9.11693 29.1622 9.14418 29.2106 9.19279C29.2591 9.2414 29.2867 9.30746 29.2877 9.37667C29.2986 11.3998 29.3497 13.2912 28.9633 15.3253C28.2344 19.1569 27.5346 22.9824 26.864 26.8018C26.8349 26.9749 26.8822 27.1237 27.0061 27.2481L29.1674 29.4176C29.3205 29.5712 29.2889 29.6419 29.0727 29.6297L26.4449 29.4724C26.355 29.4676 26.3027 29.509 26.2882 29.5968Z" fill="#DA1641"/>
<path d="M37.3449 23.6196C39.6746 21.328 42.0115 18.99 44.3558 16.6058C44.7802 16.1743 45.2022 15.9536 45.6218 15.9439C47.688 15.9024 49.7895 15.8841 51.9264 15.889C51.9652 15.8892 52.0033 15.8794 52.0371 15.8604C52.0708 15.8414 52.0991 15.8139 52.119 15.7807C52.139 15.7475 52.1499 15.7097 52.1508 15.671C52.1516 15.6323 52.1424 15.594 52.124 15.5599C51.3007 14.0277 50.4225 12.4516 49.365 11.1242C44.8717 5.48044 38.9184 2.54156 31.505 2.30752C31.4319 2.30509 31.3953 2.26608 31.3953 2.1905L31.4172 0.113421C31.4172 0.0982218 31.4203 0.0831754 31.4262 0.0691778C31.4321 0.0551802 31.4408 0.042517 31.4517 0.0319411C31.4626 0.0213652 31.4756 0.0130926 31.4898 0.00761557C31.504 0.00213853 31.5191 -0.000431315 31.5343 5.89994e-05C41.6297 0.212156 50.7482 5.98996 54.55 15.4465C54.602 15.5744 54.6907 15.6841 54.8046 15.7615C54.9186 15.839 55.0528 15.8808 55.1903 15.8817L60.6899 15.9146C60.9948 15.9146 61.0095 15.9829 60.7338 16.1194L55.9258 18.4671C55.8457 18.5068 55.7812 18.5721 55.7427 18.6523C55.7042 18.7326 55.6939 18.8232 55.7136 18.9096C57.6017 27.2362 55.6806 35.4824 50.0237 41.7502C45.3218 46.9575 38.6842 49.9854 31.4904 50C31.427 50 31.3953 49.9671 31.3953 49.9013L31.4099 47.8607C31.4098 47.8338 31.42 47.8079 31.4384 47.7882C31.4567 47.7685 31.4818 47.7566 31.5087 47.7547C38.2463 47.4475 43.7313 45.0352 47.9636 40.5178C53.1595 34.9704 55.1318 27.6019 53.6242 20.0651C53.573 19.8067 53.4291 19.736 53.1925 19.853L38.4134 27.2398C38.1719 27.3593 38.0841 27.5495 38.1499 27.8103C38.9354 30.982 39.7014 34.1135 40.4478 37.2047C40.7015 38.2628 41.4138 39.038 42.5848 39.5305C42.7092 39.5841 42.7897 39.678 42.8263 39.812C42.8994 40.09 42.9068 40.3728 42.8482 40.6604C42.833 40.7339 42.7923 40.7999 42.733 40.8472C42.6736 40.8945 42.5993 40.9203 42.5226 40.9201L34.0225 40.9237C33.8469 40.9237 33.742 40.8384 33.7078 40.6678C33.6395 40.3435 33.631 40.0168 33.6822 39.6877C33.6907 39.6345 33.7146 39.585 33.7511 39.5454C33.7875 39.5057 33.8348 39.4776 33.8871 39.4647C35.5947 39.06 36.2655 37.9617 35.8996 36.1698C35.241 32.9323 34.797 30.6895 34.5677 29.4413C34.5433 29.3072 34.4628 29.2462 34.3262 29.2584C34.1701 29.273 34.0274 29.3437 33.8981 29.4705C33.8298 29.5363 33.7468 29.5705 33.6493 29.5729L31.8161 29.5802C31.5185 29.5827 31.4758 29.479 31.688 29.2694L33.9274 27.0533C33.9623 27.0185 33.9883 26.9756 34.003 26.9285C34.0176 26.8813 34.0206 26.8313 34.0115 26.7827C33.3041 23.0625 32.5723 19.3667 31.8161 15.6952C31.3587 13.4645 31.3587 11.5045 31.4319 9.30671C31.4367 9.17263 31.5063 9.10559 31.6404 9.10559L33.4297 9.1129C33.6468 9.11534 33.7798 9.22139 33.8286 9.43104L37.151 23.5647C37.1562 23.5844 37.1664 23.6023 37.1807 23.6168C37.195 23.6313 37.2128 23.6419 37.2323 23.6474C37.2519 23.6529 37.2726 23.6533 37.2923 23.6484C37.3121 23.6435 37.3302 23.6336 37.3449 23.6196Z" fill="#F2F2F2"/>
</g>
</svg>
